PathFileType	4	(X/Y/Z)	9_coords_data.trc
DataRate	CameraRate	NumFrames	NumMarkers	Units	OrigDataRate	OrigDataStartFrame	OrigNumFrames
30.0	30.0	8	21	m	30.0	19	47
Frame#	Time	THUMB_TIP	THUMB_IP	THUMB_MCP	THUMB_CMC	INDEX_TIP	INDEX_DIP	INDEX_PIP	INDEX_MCP	MIDDLE_TIP	MIDDLE_DIP	MIDDLE_PIP	MIDDLE_MCP	RING_TIP	RING_DIP	RING_PIP	RING_MCP	PINKY_TIP	PINKY_DIP	PINKY_PIP	PINKY_MCP	WRIST
X1	Y1	Z1	X2	Y2	Z2	X3	Y3	Z3	X4	Y4	Z4	X5	Y5	Z5	X6	Y6	Z6	X7	Y7	Z7	X8	Y8	Z8	X9	Y9	Z9	X10	Y10	Z10	X11	Y11	Z11	X12	Y12	Z12	X13	Y13	Z13	X14	Y14	Z14	X15	Y15	Z15	X16	Y16	Z16	X17	Y17	Z17	X18	Y18	Z18	X19	Y19	Z19	X20	Y20	Z20	X21	Y21	Z21
17	0.5999999999999973	0.4881389774364472	-0.019071564018545928	-0.16786524096315836	0.4914939341781707	-0.018419428698743356	-0.1451425874036415	0.4858105645569031	-0.02605665836606108	-0.11550828240492916	0.4836333868423334	-0.02523279582226423	-0.07096087902708781	0.5311522710164844	-0.01849144359505739	-0.09780516177951548	0.5389072983823617	-0.00699711496066957	-0.10945591110302177	0.5386436248758228	0.011721034931130081	-0.1262359937580647	0.496327946400807	0.01126371647527391	-0.12145997983126045	0.5173363018564964	-0.017599380962614042	-0.0834770941428169	0.5325263556063679	-0.008781095184630439	-0.08789298623998465	0.5429511104132052	0.01358622079013938	-0.10339902420273084	0.50003898722539	0.025894257664614062	-0.1051906248307588	0.5136979321047861	-0.00598525969619057	-0.0740246801759028	0.5298063384602605	0.001937236663952957	-0.07568398608815485	0.5416134367846138	0.022235221804554284	-0.08397640475769774	0.5037863453409426	0.0363472390224876	-0.08614041884103485	0.5170310983613116	-0.004472114832778318	-0.062474402308650756	0.5318127831516551	0.00399960443204217	-0.06082159637418916	0.5377242897260408	0.02411818989535741	-0.06187451041449599	0.5040408119479437	0.036994911460952795	-0.0625793632321685	0.4622830810018609	-0.023011742144276925	-0.051989820119430985
18	0.6333333333333304	0.493857256896001	-0.018724130759177893	-0.1670489607195228	0.495671698844148	-0.018329987852810814	-0.1441458506297082	0.4880499785929415	-0.026180215946655427	-0.11500647350378168	0.4839236340855765	-0.02550477728417344	-0.070594683812082	0.536139700594962	-0.018704388483016476	-0.0967058215012363	0.542221208447843	-0.0066539494305924984	-0.10878067888669474	0.5402152489100377	0.011988392608913823	-0.12552729175660815	0.49790216092818074	0.010957358185746502	-0.12081818913956122	0.5219156341888201	-0.01886948574286751	-0.0819614029606811	0.5360284027180438	-0.008747046885424492	-0.08709618591791357	0.5444549683416385	0.014333756362722272	-0.10277033862903595	0.5012763643989879	0.025683157586835148	-0.10448707227693244	0.5174875493569064	-0.007300097372689995	-0.07261170570761477	0.5327919022281334	0.001994802912951288	-0.07470493571718151	0.5429166891529195	0.023104055542311763	-0.08319423027901163	0.5047009074093953	0.036118987001392155	-0.08540475484272214	0.5197968392328196	-0.004986959190081075	-0.06150017267379193	0.5338691264158666	0.004604672410538191	-0.059776416114457165	0.5384259864018681	0.025075371828623627	-0.060775171040539866	0.5043663691848986	0.03689594109226124	-0.061824012457087574	0.4622830810018609	-0.023011742144276925	-0.051989820119430985
19	0.6666666666666637	0.5010293802133164	-0.018414330621984276	-0.16556838589785172	0.5008058501675405	-0.01839684628325966	-0.1425912292283128	0.49080719099034364	-0.02646552728187579	-0.11424086412306556	0.48430022777728726	-0.02572369936760055	-0.07011605113661157	0.5426022349090833	-0.01834175307624364	-0.09559248883537719	0.5464480247823489	-0.005808098102544235	-0.10808718343952628	0.5420927772026167	0.012554007499894215	-0.12469666053437001	0.49981407525195476	0.010614271303033052	-0.11996539444021725	0.5282165047437193	-0.019881013634253875	-0.08014145183065402	0.5406894735068666	-0.008218519528170432	-0.08617562795164313	0.5462739909564421	0.015594863270776083	-0.1020231992017191	0.5027278682018084	0.025466817482312942	-0.10358128587571802	0.5226660317733804	-0.00851647610546935	-0.07081391467068354	0.5366883546321195	0.002497129167451706	-0.0734737944682623	0.544470728998436	0.02447426276679654	-0.08222709253122396	0.5057477786220528	0.035889497195483844	-0.08445113639011725	0.5235190756534114	-0.0052917705169563956	-0.060178144497764485	0.5365456159980506	0.005668446255819082	-0.05839407753061987	0.5392721328592356	0.026462669809048767	-0.059383214338135315	0.5047432475113838	0.036784137639113035	-0.06083470649032219	0.46228308100186094	-0.023011742144276925	-0.051989820119430985
20	0.6999999999999968	0.5095442754617726	-0.01818007291670176	-0.163148911270951	0.506824701618305	-0.018646777702917006	-0.14033693843315242	0.4941208016076907	-0.02687837926124237	-0.11314003308888054	0.48473130083293947	-0.025962768861264807	-0.06954084808736483	0.5503750827289249	-0.01715205825792998	-0.09463521239862105	0.551418562042946	-0.004357334372659949	-0.10741043026842323	0.5442050645868534	0.013391979486571004	-0.12368732017336082	0.5020063019939638	0.01023830945673887	-0.11889619348208114	0.5362764672229026	-0.020274515118885783	-0.07816076847654652	0.5463717324022612	-0.006990196018773709	-0.08520438168319155	0.5482776135132553	0.017348347269695696	-0.10112331625137361	0.5043282096754136	0.02527145653482843	-0.10247319138303068	0.5292728906759073	-0.009397730863889509	-0.0686989641253487	0.541375704686001	0.0035409273945842257	-0.07203258310590299	0.5461352432510423	0.026263485209137682	-0.08104436084462718	0.5068782503766591	0.035676027007810474	-0.0832834234495744	0.5282280161772623	-0.005226574072708989	-0.058488048024939565	0.539738227040238	0.007315733827086279	-0.05669764068677097	0.5401668738234562	0.028281346351520464	-0.05773271189713658	0.5051385050558157	0.03667131850084182	-0.05960492978290888	0.46228308100186083	-0.023011742144276925	-0.051989820119430985
21	0.7333333333333302	0.5189151803455639	-0.018038168258301512	-0.15954983515413612	0.5133743904846877	-0.019053395387325645	-0.13727274015514435	0.4978065811387231	-0.027381120831659	-0.11163853837136517	0.4852169059151565	-0.026188608258153945	-0.06886041321928371	0.5591092501736401	-0.014773064357685772	-0.09421194379024078	0.5568847506001428	-0.0021220249142600567	-0.10697919888475493	0.5463990984653617	0.014552929839561801	-0.12259991641841361	0.5043643250348816	0.009863119290211109	-0.11762803612425998	0.5459929553980236	-0.019443783867523656	-0.0763690934522655	0.5529035089393173	-0.004756702042469585	-0.08440239148091322	0.550316732314738	0.019626210027189117	-0.1001564936672592	0.5059895126880778	0.025119383260058803	-0.10119117671221378	0.5373055902828168	-0.009416101880809102	-0.06651115684700215	0.5466797148457458	0.005443317357029409	-0.07055138562676766	0.5477695927464539	0.02855703597961201	-0.07975726182611065	0.5080006623297479	0.03551336881906941	-0.08193956357836607	0.533878007733537	-0.004533512872160195	-0.05648374764869468	0.5433198961027337	0.0096409114401238	-0.05477014342397879	0.5410257974348351	0.030479636208298078	-0.055908862150541694	0.5055441526451134	0.036543013974006944	-0.05818301783701607	0.4622830810018609	-0.023011742144276925	-0.051989820119430985
22	0.7666666666666633	0.5284812025544747	-0.01800923744994698	-0.1547653693502009	0.5200009782288528	-0.0196155265048642	-0.13346969770408523	0.5016601399391496	-0.027960174581553754	-0.10974628101704043	0.4857259184799006	-0.026355234886130785	-0.06811198319587297	0.5682380538935732	-0.011074503671453795	-0.09461533685095347	0.562462485520469	0.000884784058096888	-0.10692867299390929	0.5485390841737215	0.015939029082648215	-0.1214723463496391	0.5067733901077363	0.009492769245903254	-0.11620844786052575	0.5570259122470727	-0.016947426323249637	-0.0751593183088276	0.5598721238433317	-0.0013879159565186594	-0.0839797897643062	0.5522429202370434	0.02226893678540276	-0.09919682366322502	0.5076509771792794	0.024977198684529855	-0.09980662102208693	0.5465895819443201	-0.008139254741098667	-0.06449407956842113	0.5523283025034814	0.008285958393877357	-0.0692141918355681	0.5492481824590396	0.03120514987545786	-0.07845559331707941	0.5090841880380068	0.0353650561612191	-0.08052188609423638	0.5402168088934398	-0.002933270136796451	-0.05432892353135921	0.5470341748752106	0.012691633106073796	-0.05278428126807133	0.5417176037992428	0.03296328320974218	-0.05405167744473727	0.5059141175422892	0.03640690702129634	-0.05672287153963762	0.4622830810018609	-0.023011742144276925	-0.051989820119430985
23	0.7999999999999965	0.5374996748733263	-0.018103957048693387	-0.1490422384495298	0.5262145039223741	-0.0202970437702209	-0.12914662870165716	0.5053789780923897	-0.028573626292278442	-0.10755498575482192	0.48624720970529417	-0.026400930704788772	-0.06731638696874787	0.5767770208399361	-0.006108242522726237	-0.09593633667836987	0.5676342112247648	0.004604038183709136	-0.10732299880593232	0.5504545588518287	0.017510749677505322	-0.12037237334117279	0.5090786744899566	0.009160783702720443	-0.11471990879082672	0.5684646607758965	-0.012299035960383953	-0.07493786877263242	0.5666823447066109	0.003212897295830852	-0.08411410308110023	0.5538712397270571	0.025201560585350058	-0.09831916647212391	0.5091942287294133	0.02487554526811908	-0.09839868583673061	0.5565524611057849	-0.00500369532710343	-0.0630419832450716	0.557894164911789	0.01220212731071535	-0.06825346079494965	0.5504198418816137	0.034168497640548634	-0.0772974117442422	0.5100435400643341	0.0352616448478843	-0.0791085204497134	0.5469732540152799	-0.00018119204758015872	-0.052208490045739464	0.5506277621948764	0.016488997880338307	-0.05088586472752488	0.542208267838477	0.035669775436011575	-0.052307802188295005	0.5062700593165244	0.03624007634099524	-0.055308364820607525	0.46228308100186083	-0.023011742144276925	-0.051989820119430985
24	0.8333333333333297	0.5455624841977771	-0.01831687855678643	-0.1427492604209516	0.5317844024228777	-0.021079395924331612	-0.1245686949622482	0.5088527490660755	-0.02924080297073739	-0.10516893441356234	0.48672530186103374	-0.026412898830772802	-0.06653903616928447	0.5840155336240189	-0.00022323462606821387	-0.09805090065366162	0.5720056475136164	0.008824663773463914	-0.1081453630052136	0.5520384965081637	0.019191719498996895	-0.11936351210874863	0.5111692072708749	0.00890443869546964	-0.11323904111867811	0.5791064494129179	-0.005388057599531093	-0.07585671307877717	0.5727019996425096	0.008976994752559309	-0.08483603900336745	0.5550648273311036	0.028368756370503623	-0.09757571263382592	0.510527393854469	0.02486800539087275	-0.0970192210409404	0.5662388849458238	0.0003289919342112091	-0.06231575125808164	0.562938664519501	0.017212078236032102	-0.06770740611192316	0.5511532705052453	0.03739966217277113	-0.07629495068099867	0.5108027987274781	0.03526697608616347	-0.07771336929607842	0.5535939512841184	0.003898406677355415	-0.05011307681563848	0.5537523566841751	0.02098514355251735	-0.04910395309269311	0.5423755687961906	0.038560410252160504	-0.05068215358319628	0.5065350266135988	0.03610498979283083	-0.05389305648203546	0.46228308100186083	-0.023011742144276925	-0.051989820119430985
